<svg xmlns="http://www.w3.org/2000/svg" viewBox="210 105 130 135">
    <g fill="#003594" fill-rule="none" stroke="none" stroke-width="1" stroke-linecap="butt" stroke-linejoin="miter"
        stroke-miterlimit="10" stroke-dasharray="" stroke-dashoffset="0" font-family="none" font-weight="none"
        font-size="none" text-anchor="none" style="mix-blend-mode: normal">
        <g fill-rule="evenodd" id="element-id-3927">
            <path
                d="M274.95342,129.67745c1.85957,0 3.74709,0.1211 5.60549,0.35515c2.84001,0.3633 5.60666,1.00838 8.26618,1.88752l-6.33011,-16.92011h-0.00245l-10.43502,14.80903c0.96181,-0.06637 1.91896,-0.13158 2.8959,-0.13158zM333.22075,180.72261l-14.77177,-10.40708c0.18281,2.79343 0.10363,5.62529 -0.26199,8.45715c-0.37261,2.86795 -1.03284,5.62412 -1.92361,8.27783l16.95738,-6.32545zM267.50594,231.4415l10.43886,-14.81602c-0.95948,0.06404 -1.91663,0.13973 -2.88891,0.13973c-1.85957,0 -3.74709,-0.1211 -5.61015,-0.3633c-2.86912,-0.36446 -5.62995,-1.01886 -8.27433,-1.90731l6.33081,16.9469zM216.77925,165.72739l14.7904,10.42769c-0.18747,-2.78412 -0.12226,-5.62529 0.25151,-8.49324c0.3633,-2.85864 1.02818,-5.61481 1.91546,-8.26968l-16.95738,6.33395zM266.33908,130.56474l-13.96134,-11.50209l-1.63018,18.07172c4.66232,-3.14858 9.93246,-5.42035 15.59152,-6.56963zM307.61061,144.43175l2.99488,-17.86678l-16.42291,7.59664c5.06986,2.48719 9.61574,5.95249 13.42803,10.27014zM305.67651,149.53306c-6.32627,-8.19399 -15.46343,-13.42687 -25.72891,-14.7543c-1.65929,-0.21542 -3.34071,-0.31672 -4.99418,-0.31672c-19.4073,0 -35.90939,14.53073 -38.3861,33.80646c-2.72822,21.20167 12.29739,40.65671 33.48974,43.38494c1.65929,0.21542 3.34071,0.3272 4.99883,0.3272c19.39799,0 35.90008,-14.53889 38.3861,-33.81694c1.31812,-10.26781 -1.43922,-20.43548 -7.76548,-28.63064zM246.19237,140.61014l-17.86562,-2.99022l7.61993,16.46483c2.5326,-5.14904 6.01304,-9.72752 10.24569,-13.47461zM317.6467,164.56798l11.52189,-13.96017l-18.05309,-1.63484c3.21379,4.78458 5.41919,10.06287 6.5312,15.59501zM232.36844,181.85489l-11.53702,13.98928l18.09967,1.64415c-3.15789,-4.69143 -5.41453,-9.97904 -6.56264,-15.63344zM303.80763,205.83252l17.86096,2.99953l-7.61993,-16.46483c-2.5326,5.14788 -6.00838,9.72752 -10.24103,13.4653zM242.40337,201.9818l-3.00419,17.91336l16.45551,-7.61527c-5.1735,-2.54192 -9.71821,-6.05496 -13.45132,-10.29809zM283.66092,215.87676l13.95086,11.52189l1.64415,-18.08919c-4.66581,3.14741 -9.94061,5.41802 -15.59501,6.5673z"
                data-paper-data="{&quot;isPathIcon&quot;:true}" id="element-id-87923"></path>
        </g>
    </g>

    <rect data-element-id="element-id-23944" stroke-width="2" fill="transparent"
        class="invisible-element-box grouping-element" x="193" y="256" width="164" height="99"
        data-element-name="isPrimaryText"></rect>
    <rect data-element-id="element-id-3927" stroke-width="2" fill="transparent"
        class="invisible-element-box grouping-element" x="217" y="115" width="116" height="116"
        data-element-name="isIcon"></rect>
    <rect data-element-id="element-id-87923" stroke-width="2" fill="transparent"
        class="invisible-element-box individual-element" x="217" y="115" width="116" height="116"></rect>
    <rect data-element-id="element-id-29906" stroke-width="2" fill="transparent"
        class="invisible-element-box individual-element" x="193" y="256" width="44" height="47"></rect>
    <rect data-element-id="element-id-77955" stroke-width="2" fill="transparent"
        class="invisible-element-box individual-element" x="305" y="326" width="52" height="29"></rect>
    <rect data-element-id="element-id-58474" stroke-width="2" fill="transparent"
        class="invisible-element-box individual-element" x="272" y="310" width="29" height="45"></rect>
    <rect data-element-id="element-id-13853" stroke-width="2" fill="transparent"
        class="invisible-element-box individual-element" x="193" y="313" width="30" height="42"></rect>
    <rect data-element-id="element-id-32913" stroke-width="2" fill="transparent"
        class="invisible-element-box individual-element" x="296" y="271" width="32" height="32"></rect>
    <rect data-element-id="element-id-89604" stroke-width="2" fill="transparent"
        class="invisible-element-box individual-element" x="271" y="261" width="22" height="42"></rect>
    <rect data-element-id="element-id-89876" stroke-width="2" fill="transparent"
        class="invisible-element-box individual-element" x="234" y="271" width="28" height="32"></rect>
    <rect data-element-id="element-id-87309" stroke-width="2" fill="transparent"
        class="invisible-element-box individual-element" x="334" y="271" width="24" height="32"></rect>
    <rect data-element-id="element-id-97054" stroke-width="2" fill="transparent"
        class="invisible-element-box individual-element" x="244" y="326" width="25" height="29"></rect>
    <rect data-element-id="element-id-85636" stroke-width="2" fill="transparent"
        class="invisible-element-box individual-element" x="229" y="314" width="8" height="41"></rect>
</svg>